{"title":"Boy Wonder 2010 DvDRip XviD Ac3 Feel-Free","uid":6922452,"size":896798755,"categoryP":"video","categoryS":"movies","magnet":"?xt=urn:btih:9f66a33f72b83cffac7c6488c949ae37a0618fee&amp;dn=Boy+Wonder+2010+DvDRip+XviD+Ac3+Feel-Free&amp;tr=udp%3A%2F%2Ftracker.openbittorrent.com%3A80&amp;tr=udp%3A%2F%2Fopen.demonii.com%3A1337&amp;tr=udp%3A%2F%2Ftracker.coppersurfer.tk%3A6969&amp;tr=udp%3A%2F%2Fexodus.desync.com%3A6969","seeders":2,"leechers":0,"uploader":"rcbcsk","files":-1,"time":1325322800,"description":"Genre:Action | Crime | Drama\nLanguage:English\nIMDb:http://www.imdb.com/title/tt1456060/\nSource:DVD Thanks!\n\nFormat : AVI\nFormat/Info : Audio Video Interleave\nFile size : 854 MiB\nDuration : 1h 36mn\nOverall bit rate : 1 238 Kbps\n\nVideo\nID : 0\nFormat : MPEG-4 Visual\nFormat profile : Advanced Simple@L5\nFormat settings, BVOP : Yes\nFormat settings, QPel : No\nFormat settings, GMC : No warppoints\nFormat settings, Matrix : Default (H.263)\nCodec ID : XVID\nCodec ID/Hint : XviD\nDuration : 1h 36mn\nBit rate : 781 Kbps\nWidth : 640 pixels\nHeight : 272 pixels\nDisplay aspect ratio : 2.35:1\nFrame rate : 23.976 fps\nColor space : YUV\nChroma subsampling : 4:2:0\nBit depth : 8 bits\nScan type : Progressive\nBits/(Pixel*Frame) : 0.187\nStream size : 539 MiB (63%)\nWriting library : XviD 1.2.1 (UTC 2008-12-04)\n\nAudio\nID : 1\nFormat : AC-3\nFormat/Info : Audio Coding 3\nMode extension : CM (complete main)\nCodec ID : 2000\nDuration : 1h 36mn\nBit rate mode : Constant\nBit rate : 448 Kbps\nChannel(s) : 6 channels\nChannel positions : Front: L C R, Side: L R, LFE\nSampling rate : 48.0 KHz\nBit depth : 16 bits\nStream size : 309 MiB (36%)\nAlignment : Aligned on interleaves\nInterleave, duration : 42 ms (1.00 video frame)\nInterleave, preload duration : 512 ms\n\n\nPlot:\nA young Brooklyn boy witnesses the brutal murder of his mother and grows up obsessed with finding her killer...\n\nScreens\n &lt;a href=&quot;\nhttp://img834.imageshack.us/img834/4166/vlcsnap00001xv.png&quot; rel=&quot;nofollow&quot; target=&quot;_NEW&quot;&gt;\nhttp://img834.imageshack.us/img834/4166/vlcsnap00001xv.png&lt;/a&gt;\n &lt;a href=&quot;\nhttp://img59.imageshack.us/img59/4676/vlcsnap00002wj.png&quot; rel=&quot;nofollow&quot; target=&quot;_NEW&quot;&gt;\nhttp://img59.imageshack.us/img59/4676/vlcsnap00002wj.png&lt;/a&gt;\n &lt;a href=&quot;\nhttp://img853.imageshack.us/img853/5638/vlcsnap00004m.png&quot; rel=&quot;nofollow&quot; target=&quot;_NEW&quot;&gt;\nhttp://img853.imageshack.us/img853/5638/vlcsnap00004m.png&lt;/a&gt;","torrent":{"xt":"urn:btih:9f66a33f72b83cffac7c6488c949ae37a0618fee","amp;dn":"Boy+Wonder+2010+DvDRip+XviD+Ac3+Feel-Free","amp;tr":["udp%3A%2F%2Ftracker.openbittorrent.com%3A80","udp%3A%2F%2Fopen.demonii.com%3A1337","udp%3A%2F%2Ftracker.coppersurfer.tk%3A6969","udp%3A%2F%2Fexodus.desync.com%3A6969"],"infoHash":"9f66a33f72b83cffac7c6488c949ae37a0618fee","infoHashBuffer":{"type":"Buffer","data":[159,102,163,63,114,184,60,255,172,124,100,136,201,73,174,55,160,97,143,238]},"announce":[],"urlList":[]}}